<?xml version="1.0" encoding="UTF-8" standalone="yes"?>
<svg xmlns="http://www.w3.org/2000/svg" xmlns:xlink="http://www.w3.org/1999/xlink" height="691px" style="width:1752px;height:691px;" version="1.1" viewBox="0 0 1752 691" width="1752px">
  <defs/>
  <g>
<style type="text/css">
@font-face {
  font-family: 'Roboto';
  font-style: normal;
  font-weight: 400;
  src: local('Roboto'), local('Roboto-Regular'), url(https://fonts.gstatic.com/s/roboto/v15/zN7GBFwfMP4uA6AR0HCoLQ.ttf) format('truetype');
}
@font-face {
  font-family: 'Roboto';
  font-style: normal;
  font-weight: 700;
  src: local('Roboto Bold'), local('Roboto-Bold'), url(https://fonts.gstatic.com/s/roboto/v15/d-6IYplOFocCacKzxwXSOKCWcynf_cDxXwCLxiixG1c.ttf) format('truetype');
}
@font-face {
  font-family: 'Roboto';
  font-style: italic;
  font-weight: 400;
  src: local('Roboto Italic'), local('Roboto-Italic'), url(https://fonts.gstatic.com/s/roboto/v15/W4wDsBUluyw0tK3tykhXEfesZW2xOQ-xsNqO47m55DA.ttf) format('truetype');
}
@font-face {
  font-family: 'Roboto';
  font-style: italic;
  font-weight: 700;
  src: local('Roboto Bold Italic'), local('Roboto-BoldItalic'), url(https://fonts.gstatic.com/s/roboto/v15/t6Nd4cfPRhZP44Q5QAjcC50EAVxt0G0biEntp43Qt6E.ttf) format('truetype');
}
</style>
    <rect fill="#FEFEFE" height="70.1162" rx="12.5" ry="12.5" style="stroke: #303030; stroke-width: 1.5;" width="276" x="360.5" y="134"/>
    <line style="stroke: #303030; stroke-width: 1.5;" x1="360.5" x2="636.5" y1="162.4639" y2="162.4639"/>
    <text fill="#000000" font-family="Roboto" font-size="14" font-weight="bold" lengthAdjust="spacingAndGlyphs" textLength="37" x="480" y="153.6699">User1</text>
    <text fill="#000000" font-family="Roboto" font-size="12" lengthAdjust="spacingAndGlyphs" textLength="256" x="365.5" y="180.0381">id1: "281220eb-a4ef-4d03-b666-bdec4b26c5f7"</text>
    <text fill="#000000" font-family="Roboto" font-size="12" lengthAdjust="spacingAndGlyphs" textLength="181" x="365.5" y="195.8643">email: "example1@example.com"</text>
    <rect fill="#FEFEFE" height="70.1162" rx="12.5" ry="12.5" style="stroke: #303030; stroke-width: 1.5;" width="276" x="677.5" y="134"/>
    <line style="stroke: #303030; stroke-width: 1.5;" x1="677.5" x2="953.5" y1="162.4639" y2="162.4639"/>
    <text fill="#000000" font-family="Roboto" font-size="14" font-weight="bold" lengthAdjust="spacingAndGlyphs" textLength="37" x="797" y="153.6699">User2</text>
    <text fill="#000000" font-family="Roboto" font-size="12" lengthAdjust="spacingAndGlyphs" textLength="256" x="682.5" y="180.0381">id2: "281220eb-a4ef-4d03-b666-bdec4b26c5f7"</text>
    <text fill="#000000" font-family="Roboto" font-size="12" lengthAdjust="spacingAndGlyphs" textLength="181" x="682.5" y="195.8643">email: "example2@example.com"</text>
    <rect fill="#FEFEFE" height="70.1162" rx="12.5" ry="12.5" style="stroke: #303030; stroke-width: 1.5;" width="353" x="989" y="134"/>
    <line style="stroke: #303030; stroke-width: 1.5;" x1="989" x2="1342" y1="162.4639" y2="162.4639"/>
    <text fill="#000000" font-family="Roboto" font-size="14" font-weight="bold" lengthAdjust="spacingAndGlyphs" textLength="39" x="1146" y="153.6699">UserN</text>
    <text fill="#000000" font-family="Roboto" font-size="12" lengthAdjust="spacingAndGlyphs" textLength="333" x="994" y="180.0381">idN: "NNNNNNNN-NNNN-NNNN-NNNN-NNNNNNNNNNNN"</text>
    <text fill="#000000" font-family="Roboto" font-size="12" lengthAdjust="spacingAndGlyphs" textLength="181" x="994" y="195.8643">email: "example3@example.com"</text>
    <rect fill="#FEFEFE" height="50" rx="12.5" ry="12.5" style="stroke: #303030; stroke-width: 1.5;" width="65" x="783" y="8"/>
    <line style="stroke: #303030; stroke-width: 1.5;" x1="783" x2="848" y1="36.4639" y2="36.4639"/>
    <text fill="#000000" font-family="Roboto" font-size="14" font-weight="bold" lengthAdjust="spacingAndGlyphs" textLength="45" x="793" y="27.6699">Person</text>
    <rect fill="#FEFEFE" height="70.1162" rx="12.5" ry="12.5" style="stroke: #303030; stroke-width: 1.5;" width="135" x="390" y="280"/>
    <line style="stroke: #303030; stroke-width: 1.5;" x1="390" x2="525" y1="308.4639" y2="308.4639"/>
    <text fill="#000000" font-family="Roboto" font-size="14" font-weight="bold" lengthAdjust="spacingAndGlyphs" textLength="57" x="429" y="299.6699">Identity1</text>
    <text fill="#000000" font-family="Roboto" font-size="12" lengthAdjust="spacingAndGlyphs" textLength="39" x="395" y="326.0381">"id": "1"</text>
    <text fill="#000000" font-family="Roboto" font-size="12" lengthAdjust="spacingAndGlyphs" textLength="115" x="395" y="341.8643">"name": "Ivanov Ivan"</text>
    <rect fill="#FEFEFE" height="70.1162" rx="12.5" ry="12.5" style="stroke: #303030; stroke-width: 1.5;" width="135" x="748" y="280"/>
    <line style="stroke: #303030; stroke-width: 1.5;" x1="748" x2="883" y1="308.4639" y2="308.4639"/>
    <text fill="#000000" font-family="Roboto" font-size="14" font-weight="bold" lengthAdjust="spacingAndGlyphs" textLength="57" x="787" y="299.6699">Identity2</text>
    <text fill="#000000" font-family="Roboto" font-size="12" lengthAdjust="spacingAndGlyphs" textLength="39" x="753" y="326.0381">"id": "2"</text>
    <text fill="#000000" font-family="Roboto" font-size="12" lengthAdjust="spacingAndGlyphs" textLength="115" x="753" y="341.8643">"name": "Ivanov Ivan"</text>
    <rect fill="#FEFEFE" height="70.1162" rx="12.5" ry="12.5" style="stroke: #303030; stroke-width: 1.5;" width="135" x="935" y="280"/>
    <line style="stroke: #303030; stroke-width: 1.5;" x1="935" x2="1070" y1="308.4639" y2="308.4639"/>
    <text fill="#000000" font-family="Roboto" font-size="14" font-weight="bold" lengthAdjust="spacingAndGlyphs" textLength="57" x="974" y="299.6699">Identity3</text>
    <text fill="#000000" font-family="Roboto" font-size="12" lengthAdjust="spacingAndGlyphs" textLength="39" x="940" y="326.0381">"id": "3"</text>
    <text fill="#000000" font-family="Roboto" font-size="12" lengthAdjust="spacingAndGlyphs" textLength="115" x="940" y="341.8643">"name": "Ivanov Ivan"</text>
    <rect fill="#FEFEFE" height="70.1162" rx="12.5" ry="12.5" style="stroke: #303030; stroke-width: 1.5;" width="86" x="1122.5" y="280"/>
    <line style="stroke: #303030; stroke-width: 1.5;" x1="1122.5" x2="1208.5" y1="308.4639" y2="308.4639"/>
    <text fill="#000000" font-family="Roboto" font-size="14" font-weight="bold" lengthAdjust="spacingAndGlyphs" textLength="59" x="1136" y="299.6699">IdentityN</text>
    <text fill="#000000" font-family="Roboto" font-size="12" lengthAdjust="spacingAndGlyphs" textLength="42" x="1127.5" y="326.0381">idN: "N"</text>
    <text fill="#000000" font-family="Roboto" font-size="12" lengthAdjust="spacingAndGlyphs" textLength="66" x="1127.5" y="341.8643">name: "N N"</text>
    <rect fill="#FEFEFE" height="117.5947" rx="12.5" ry="12.5" style="stroke: #303030; stroke-width: 1.5;" width="257" x="6" y="426"/>
    <line style="stroke: #303030; stroke-width: 1.5;" x1="6" x2="263" y1="454.4639" y2="454.4639"/>
    <text fill="#000000" font-family="Roboto" font-size="14" font-weight="bold" lengthAdjust="spacingAndGlyphs" textLength="57" x="106" y="445.6699">PrivDoc1</text>
    <text fill="#000000" font-family="Roboto" font-size="12" lengthAdjust="spacingAndGlyphs" textLength="193" x="11" y="472.0381">"type": "RUSDomesticPassportData"</text>
    <text fill="#000000" font-family="Roboto" font-size="12" lengthAdjust="spacingAndGlyphs" textLength="106" x="11" y="487.8643">"number": "123476"</text>
    <text fill="#000000" font-family="Roboto" font-size="12" lengthAdjust="spacingAndGlyphs" textLength="133" x="11" y="503.6904">"familyName": "Иванов"</text>
    <text fill="#000000" font-family="Roboto" font-size="12" lengthAdjust="spacingAndGlyphs" textLength="237" x="11" y="519.5166">"type": "RUSRetireeInsuranceCertificateData"</text>
    <text fill="#000000" font-family="Roboto" font-size="12" lengthAdjust="spacingAndGlyphs" textLength="150" x="11" y="535.3428">"number": "123-456-789 76"</text>
    <rect fill="#FEFEFE" height="117.5947" rx="12.5" ry="12.5" style="stroke: #303030; stroke-width: 1.5;" width="257" x="789" y="426"/>
    <line style="stroke: #303030; stroke-width: 1.5;" x1="789" x2="1046" y1="454.4639" y2="454.4639"/>
    <text fill="#000000" font-family="Roboto" font-size="14" font-weight="bold" lengthAdjust="spacingAndGlyphs" textLength="57" x="889" y="445.6699">PrivDoc3</text>
    <text fill="#000000" font-family="Roboto" font-size="12" lengthAdjust="spacingAndGlyphs" textLength="193" x="794" y="472.0381">"type": "RUSDomesticPassportData"</text>
    <text fill="#000000" font-family="Roboto" font-size="12" lengthAdjust="spacingAndGlyphs" textLength="106" x="794" y="487.8643">"number": "123476"</text>
    <text fill="#000000" font-family="Roboto" font-size="12" lengthAdjust="spacingAndGlyphs" textLength="133" x="794" y="503.6904">"familyName": "Иванов"</text>
    <text fill="#000000" font-family="Roboto" font-size="12" lengthAdjust="spacingAndGlyphs" textLength="237" x="794" y="519.5166">"type": "RUSRetireeInsuranceCertificateData"</text>
    <text fill="#000000" font-family="Roboto" font-size="12" lengthAdjust="spacingAndGlyphs" textLength="150" x="794" y="535.3428">"number": "123-456-789 76"</text>
    <rect fill="#FEFEFE" height="70.1162" rx="12.5" ry="12.5" style="stroke: #303030; stroke-width: 1.5;" width="174" x="298.5" y="450"/>
    <line style="stroke: #303030; stroke-width: 1.5;" x1="298.5" x2="472.5" y1="478.4639" y2="478.4639"/>
    <text fill="#000000" font-family="Roboto" font-size="14" font-weight="bold" lengthAdjust="spacingAndGlyphs" textLength="82" x="344.5" y="469.6699">Destination1</text>
    <text fill="#000000" font-family="Roboto" font-size="12" lengthAdjust="spacingAndGlyphs" textLength="39" x="303.5" y="496.0381">"id": "1"</text>
    <text fill="#000000" font-family="Roboto" font-size="12" lengthAdjust="spacingAndGlyphs" textLength="154" x="303.5" y="511.8643">"name": "User-friendly name"</text>
    <rect fill="#FEFEFE" height="70.1162" rx="12.5" ry="12.5" style="stroke: #303030; stroke-width: 1.5;" width="174" x="1081.5" y="450"/>
    <line style="stroke: #303030; stroke-width: 1.5;" x1="1081.5" x2="1255.5" y1="478.4639" y2="478.4639"/>
    <text fill="#000000" font-family="Roboto" font-size="14" font-weight="bold" lengthAdjust="spacingAndGlyphs" textLength="82" x="1127.5" y="469.6699">Destination3</text>
    <text fill="#000000" font-family="Roboto" font-size="12" lengthAdjust="spacingAndGlyphs" textLength="39" x="1086.5" y="496.0381">"id": "1"</text>
    <text fill="#000000" font-family="Roboto" font-size="12" lengthAdjust="spacingAndGlyphs" textLength="154" x="1086.5" y="511.8643">"name": "User-friendly name"</text>
    <rect fill="#FEFEFE" height="54.29" rx="12.5" ry="12.5" style="stroke: #303030; stroke-width: 1.5;" width="208" x="38.5" y="628"/>
    <line style="stroke: #303030; stroke-width: 1.5;" x1="38.5" x2="246.5" y1="656.4639" y2="656.4639"/>
    <text fill="#000000" font-family="Roboto" font-size="14" font-weight="bold" lengthAdjust="spacingAndGlyphs" textLength="118" x="83.5" y="647.6699">DestinationGrant1</text>
    <text fill="#000000" font-family="Roboto" font-size="12" lengthAdjust="spacingAndGlyphs" textLength="188" x="43.5" y="674.0381">"token": "eyJt...MTowNDowOVoifQ"</text>
    <rect fill="#FEFEFE" height="54.29" rx="12.5" ry="12.5" style="stroke: #303030; stroke-width: 1.5;" width="208" x="912.5" y="628"/>
    <line style="stroke: #303030; stroke-width: 1.5;" x1="912.5" x2="1120.5" y1="656.4639" y2="656.4639"/>
    <text fill="#000000" font-family="Roboto" font-size="14" font-weight="bold" lengthAdjust="spacingAndGlyphs" textLength="118" x="957.5" y="647.6699">DestinationGrant3</text>
    <text fill="#000000" font-family="Roboto" font-size="12" lengthAdjust="spacingAndGlyphs" textLength="188" x="917.5" y="674.0381">"token": "eyJt...MTowNDowOVoifQ"</text>
    <rect fill="#FEFEFE" height="70.1162" rx="12.5" ry="12.5" style="stroke: #303030; stroke-width: 1.5;" width="208" x="281.5" y="620"/>
    <line style="stroke: #303030; stroke-width: 1.5;" x1="281.5" x2="489.5" y1="648.4639" y2="648.4639"/>
    <text fill="#000000" font-family="Roboto" font-size="14" font-weight="bold" lengthAdjust="spacingAndGlyphs" textLength="52" x="359.5" y="639.6699">Payres1</text>
    <text fill="#000000" font-family="Roboto" font-size="12" lengthAdjust="spacingAndGlyphs" textLength="188" x="286.5" y="666.0381">"token": "eyJt...MTowNDowOVoifQ"</text>
    <text fill="#000000" font-family="Roboto" font-size="12" lengthAdjust="spacingAndGlyphs" textLength="81" x="286.5" y="681.8643">"bin": "415039"</text>
    <rect fill="#FEFEFE" height="70.1162" rx="12.5" ry="12.5" style="stroke: #303030; stroke-width: 1.5;" width="208" x="1155.5" y="620"/>
    <line style="stroke: #303030; stroke-width: 1.5;" x1="1155.5" x2="1363.5" y1="648.4639" y2="648.4639"/>
    <text fill="#000000" font-family="Roboto" font-size="14" font-weight="bold" lengthAdjust="spacingAndGlyphs" textLength="52" x="1233.5" y="639.6699">Payres3</text>
    <text fill="#000000" font-family="Roboto" font-size="12" lengthAdjust="spacingAndGlyphs" textLength="188" x="1160.5" y="666.0381">"token": "eyJt...MTowNDowOVoifQ"</text>
    <text fill="#000000" font-family="Roboto" font-size="12" lengthAdjust="spacingAndGlyphs" textLength="81" x="1160.5" y="681.8643">"bin": "415039"</text>
    <rect fill="#FEFEFE" height="70.1162" rx="12.5" ry="12.5" style="stroke: #303030; stroke-width: 1.5;" width="174" x="507.5" y="450"/>
    <line style="stroke: #303030; stroke-width: 1.5;" x1="507.5" x2="681.5" y1="478.4639" y2="478.4639"/>
    <text fill="#000000" font-family="Roboto" font-size="14" font-weight="bold" lengthAdjust="spacingAndGlyphs" textLength="49" x="570" y="469.6699">Wallet1</text>
    <text fill="#000000" font-family="Roboto" font-size="12" lengthAdjust="spacingAndGlyphs" textLength="39" x="512.5" y="496.0381">"id": "1"</text>
    <text fill="#000000" font-family="Roboto" font-size="12" lengthAdjust="spacingAndGlyphs" textLength="154" x="512.5" y="511.8643">"name": "User-friendly name"</text>
    <rect fill="#FEFEFE" height="70.1162" rx="12.5" ry="12.5" style="stroke: #303030; stroke-width: 1.5;" width="174" x="1366.5" y="450"/>
    <line style="stroke: #303030; stroke-width: 1.5;" x1="1366.5" x2="1540.5" y1="478.4639" y2="478.4639"/>
    <text fill="#000000" font-family="Roboto" font-size="14" font-weight="bold" lengthAdjust="spacingAndGlyphs" textLength="49" x="1429" y="469.6699">Wallet3</text>
    <text fill="#000000" font-family="Roboto" font-size="12" lengthAdjust="spacingAndGlyphs" textLength="39" x="1371.5" y="496.0381">"id": "1"</text>
    <text fill="#000000" font-family="Roboto" font-size="12" lengthAdjust="spacingAndGlyphs" textLength="154" x="1371.5" y="511.8643">"name": "User-friendly name"</text>
    <rect fill="#FEFEFE" height="70.1162" rx="12.5" ry="12.5" style="stroke: #303030; stroke-width: 1.5;" width="110" x="524.5" y="620"/>
    <line style="stroke: #303030; stroke-width: 1.5;" x1="524.5" x2="634.5" y1="648.4639" y2="648.4639"/>
    <text fill="#000000" font-family="Roboto" font-size="14" font-weight="bold" lengthAdjust="spacingAndGlyphs" textLength="60" x="549.5" y="639.6699">Account1</text>
    <text fill="#000000" font-family="Roboto" font-size="12" lengthAdjust="spacingAndGlyphs" textLength="64" x="529.5" y="666.0381">"amount": 0</text>
    <text fill="#000000" font-family="Roboto" font-size="12" lengthAdjust="spacingAndGlyphs" textLength="90" x="529.5" y="681.8643">"currency": "RUB"</text>
    <rect fill="#FEFEFE" height="70.1162" rx="12.5" ry="12.5" style="stroke: #303030; stroke-width: 1.5;" width="110" x="1398.5" y="620"/>
    <line style="stroke: #303030; stroke-width: 1.5;" x1="1398.5" x2="1508.5" y1="648.4639" y2="648.4639"/>
    <text fill="#000000" font-family="Roboto" font-size="14" font-weight="bold" lengthAdjust="spacingAndGlyphs" textLength="60" x="1423.5" y="639.6699">Account3</text>
    <text fill="#000000" font-family="Roboto" font-size="12" lengthAdjust="spacingAndGlyphs" textLength="64" x="1403.5" y="666.0381">"amount": 0</text>
    <text fill="#000000" font-family="Roboto" font-size="12" lengthAdjust="spacingAndGlyphs" textLength="90" x="1403.5" y="681.8643">"currency": "RUB"</text>
    <rect fill="#FEFEFE" height="70.1162" rx="12.5" ry="12.5" style="stroke: #303030; stroke-width: 1.5;" width="208" x="669.5" y="620"/>
    <line style="stroke: #303030; stroke-width: 1.5;" x1="669.5" x2="877.5" y1="648.4639" y2="648.4639"/>
    <text fill="#000000" font-family="Roboto" font-size="14" font-weight="bold" lengthAdjust="spacingAndGlyphs" textLength="85" x="731" y="639.6699">WalletGrant1</text>
    <text fill="#000000" font-family="Roboto" font-size="12" lengthAdjust="spacingAndGlyphs" textLength="188" x="674.5" y="666.0381">"token": "eyJt...MTowNDowOVoifQ"</text>
    <text fill="#000000" font-family="Roboto" font-size="12" lengthAdjust="spacingAndGlyphs" textLength="92" x="674.5" y="681.8643">"amount": 10000</text>
    <rect fill="#FEFEFE" height="70.1162" rx="12.5" ry="12.5" style="stroke: #303030; stroke-width: 1.5;" width="208" x="1543.5" y="620"/>
    <line style="stroke: #303030; stroke-width: 1.5;" x1="1543.5" x2="1751.5" y1="648.4639" y2="648.4639"/>
    <text fill="#000000" font-family="Roboto" font-size="14" font-weight="bold" lengthAdjust="spacingAndGlyphs" textLength="85" x="1605" y="639.6699">WalletGrant3</text>
    <text fill="#000000" font-family="Roboto" font-size="12" lengthAdjust="spacingAndGlyphs" textLength="188" x="1548.5" y="666.0381">"token": "eyJt...MTowNDowOVoifQ"</text>
    <text fill="#000000" font-family="Roboto" font-size="12" lengthAdjust="spacingAndGlyphs" textLength="92" x="1548.5" y="681.8643">"amount": 10000</text>
    <path d="M782.769,47.836 C736.193,67.524 649.178,104.307 583.636,132.012 " fill="none" style="stroke: #606060; stroke-width: 1.0;"/>
    <polygon fill="#606060" points="578.955,133.991,588.8022,134.1707,583.5603,132.044,585.687,126.8021,578.955,133.991" style="stroke: #606060; stroke-width: 1.0;"/>
    <text fill="#000000" font-family="Roboto" font-size="11" lengthAdjust="spacingAndGlyphs" textLength="26" x="686.5" y="100.5264">owns</text>
    <path d="M815.5,58.266 C815.5,77.899 815.5,105.934 815.5,128.752 " fill="none" style="stroke: #606060; stroke-width: 1.0;"/>
    <polygon fill="#606060" points="815.5,133.834,819.5,124.834,815.5,128.834,811.5,124.834,815.5,133.834" style="stroke: #606060; stroke-width: 1.0;"/>
    <text fill="#000000" font-family="Roboto" font-size="11" lengthAdjust="spacingAndGlyphs" textLength="26" x="816.5" y="100.5264">owns</text>
    <path d="M848.113,46.486 C898.594,65.813 997.552,103.7 1071.62,132.056 " fill="none" style="stroke: #606060; stroke-width: 1.0;"/>
    <polygon fill="#606060" points="1076.46,133.91,1069.5015,126.9401,1071.7947,132.1113,1066.6236,134.4045,1076.46,133.91" style="stroke: #606060; stroke-width: 1.0;"/>
    <text fill="#000000" font-family="Roboto" font-size="11" lengthAdjust="spacingAndGlyphs" textLength="26" x="991.5" y="100.5264">owns</text>
    <path d="M488.784,204.126 C482.751,225.312 474.978,252.614 468.689,274.703 " fill="none" style="stroke: #606060; stroke-width: 1.0;"/>
    <polygon fill="#606060" points="467.289,279.62,473.5999,272.0587,468.6577,274.811,465.9054,269.8688,467.289,279.62" style="stroke: #606060; stroke-width: 1.0;"/>
    <text fill="#000000" font-family="Roboto" font-size="11" lengthAdjust="spacingAndGlyphs" textLength="26" x="480.5" y="246.5264">owns</text>
    <path d="M815.5,204.126 C815.5,225.223 815.5,252.385 815.5,274.424 " fill="none" style="stroke: #606060; stroke-width: 1.0;"/>
    <polygon fill="#606060" points="815.5,279.62,819.5,270.62,815.5,274.62,811.5,270.62,815.5,279.62" style="stroke: #606060; stroke-width: 1.0;"/>
    <text fill="#000000" font-family="Roboto" font-size="11" lengthAdjust="spacingAndGlyphs" textLength="26" x="816.5" y="246.5264">owns</text>
    <path d="M859.816,204.126 C888.125,225.925 924.844,254.2 953.942,276.608 " fill="none" style="stroke: #606060; stroke-width: 1.0;"/>
    <polygon fill="#606060" points="958.178,279.87,953.487,271.2101,954.2162,276.8197,948.6066,277.5489,958.178,279.87" style="stroke: #606060; stroke-width: 1.0;"/>
    <text fill="#000000" font-family="Roboto" font-size="11" lengthAdjust="spacingAndGlyphs" textLength="26" x="916.5" y="246.5264">owns</text>
    <path d="M1165.5,204.126 C1165.5,225.223 1165.5,252.385 1165.5,274.424 " fill="none" style="stroke: #606060; stroke-width: 1.0;"/>
    <polygon fill="#606060" points="1165.5,279.62,1169.5,270.62,1165.5,274.62,1161.5,270.62,1165.5,279.62" style="stroke: #606060; stroke-width: 1.0;"/>
    <text fill="#000000" font-family="Roboto" font-size="11" lengthAdjust="spacingAndGlyphs" textLength="26" x="1166.5" y="246.5264">owns</text>
    <path d="M391.747,350.2 C351.274,371.251 298.244,398.833 250.854,423.482 " fill="none" style="stroke: #606060; stroke-width: 1.0;"/>
    <polygon fill="#606060" points="246.286,425.857,256.1163,425.2527,250.7219,423.5498,252.4248,418.1553,246.286,425.857" style="stroke: #606060; stroke-width: 1.0;"/>
    <text fill="#000000" font-family="Roboto" font-size="11" lengthAdjust="spacingAndGlyphs" textLength="26" x="335.5" y="392.5264">owns</text>
    <path d="M985.094,350.403 C974.803,370.742 961.454,397.126 949.34,421.068 " fill="none" style="stroke: #606060; stroke-width: 1.0;"/>
    <polygon fill="#606060" points="946.935,425.822,954.5671,419.597,949.1922,421.3605,947.4287,415.9855,946.935,425.822" style="stroke: #606060; stroke-width: 1.0;"/>
    <text fill="#000000" font-family="Roboto" font-size="11" lengthAdjust="spacingAndGlyphs" textLength="26" x="971.5" y="392.5264">owns</text>
    <path d="M442.756,350.403 C430.972,377.899 414.453,416.442 402.186,445.067 " fill="none" style="stroke: #606060; stroke-width: 1.0;"/>
    <polygon fill="#606060" points="400.101,449.931,407.3216,443.233,402.0697,445.3349,399.9678,440.083,400.101,449.931" style="stroke: #606060; stroke-width: 1.0;"/>
    <text fill="#000000" font-family="Roboto" font-size="11" lengthAdjust="spacingAndGlyphs" textLength="26" x="431.5" y="392.5264">owns</text>
    <path d="M1036.49,350.403 C1064,378.24 1102.69,417.399 1131.08,446.126 " fill="none" style="stroke: #606060; stroke-width: 1.0;"/>
    <polygon fill="#606060" points="1134.84,449.931,1131.3602,440.7174,1131.326,446.3741,1125.6692,446.3398,1134.84,449.931" style="stroke: #606060; stroke-width: 1.0;"/>
    <text fill="#000000" font-family="Roboto" font-size="11" lengthAdjust="spacingAndGlyphs" textLength="26" x="1082.5" y="392.5264">owns</text>
    <path d="M385.5,520.403 C385.5,547.786 385.5,586.124 385.5,614.7112 " fill="none" style="stroke: #606060; stroke-width: 1.0;"/>
    <polygon fill="#606060" points="385.5,619.9308,389.5,610.9308,385.5,614.9308,381.5,610.9308,385.5,619.9308" style="stroke: #606060; stroke-width: 1.0;"/>
    <text fill="#000000" font-family="Roboto" font-size="11" lengthAdjust="spacingAndGlyphs" textLength="27" x="386.5" y="586.5264">issue</text>
    <path d="M1187.13,520.403 C1202.09,548.013 1223.08,586.761 1238.6,615.4209 " fill="none" style="stroke: #606060; stroke-width: 1.0;"/>
    <polygon fill="#606060" points="1241.05,619.9308,1240.2705,610.1128,1238.6641,615.5368,1233.2401,613.9303,1241.05,619.9308" style="stroke: #606060; stroke-width: 1.0;"/>
    <text fill="#000000" font-family="Roboto" font-size="11" lengthAdjust="spacingAndGlyphs" textLength="27" x="1226.5" y="586.5264">issue</text>
    <path d="M336.032,520.2 C291.491,550.994 226.735,595.7631 184.616,624.8828 " fill="none" style="stroke: #606060; stroke-width: 1.0;"/>
    <polygon fill="#606060" points="180.358,627.8264,190.0359,625.9994,184.4711,624.9834,185.4871,619.4185,180.358,627.8264" style="stroke: #606060; stroke-width: 1.0;"/>
    <text fill="#000000" font-family="Roboto" font-size="11" lengthAdjust="spacingAndGlyphs" textLength="27" x="258.5" y="586.5264">issue</text>
    <path d="M1137.37,520.403 C1109.78,550.904 1069.88,594.999 1043.58,624.0691 " fill="none" style="stroke: #606060; stroke-width: 1.0;"/>
    <polygon fill="#606060" points="1040.12,627.8912,1049.1285,623.9103,1043.4784,624.187,1043.2017,618.5369,1040.12,627.8912" style="stroke: #606060; stroke-width: 1.0;"/>
    <text fill="#000000" font-family="Roboto" font-size="11" lengthAdjust="spacingAndGlyphs" textLength="27" x="1089.5" y="586.5264">issue</text>
    <path d="M485.555,350.403 C508.163,378.126 539.928,417.08 563.328,445.774 " fill="none" style="stroke: #606060; stroke-width: 1.0;"/>
    <polygon fill="#606060" points="566.717,449.931,564.1299,440.428,563.5574,446.0558,557.9296,445.4833,566.717,449.931" style="stroke: #606060; stroke-width: 1.0;"/>
    <text fill="#000000" font-family="Roboto" font-size="11" lengthAdjust="spacingAndGlyphs" textLength="26" x="523.5" y="392.5264">owns</text>
    <path d="M1070.02,341.151 C1147.44,369.989 1274.77,417.423 1361.29,449.65 " fill="none" style="stroke: #606060; stroke-width: 1.0;"/>
    <polygon fill="#606060" points="1366.15,451.461,1359.1098,444.5737,1361.4638,449.7174,1356.3201,452.0715,1366.15,451.461" style="stroke: #606060; stroke-width: 1.0;"/>
    <text fill="#000000" font-family="Roboto" font-size="11" lengthAdjust="spacingAndGlyphs" textLength="26" x="1215.5" y="392.5264">owns</text>
    <path d="M591.428,520.403 C588.983,547.786 585.56,586.124 583.008,614.7112 " fill="none" style="stroke: #606060; stroke-width: 1.0;"/>
    <polygon fill="#606060" points="582.542,619.9308,587.3267,611.3223,582.9867,614.9506,579.3584,610.6107,582.542,619.9308" style="stroke: #606060; stroke-width: 1.0;"/>
    <text fill="#000000" font-family="Roboto" font-size="11" lengthAdjust="spacingAndGlyphs" textLength="26" x="588.5" y="586.5264">owns</text>
    <path d="M1453.5,520.403 C1453.5,547.786 1453.5,586.124 1453.5,614.7112 " fill="none" style="stroke: #606060; stroke-width: 1.0;"/>
    <polygon fill="#606060" points="1453.5,619.9308,1457.5,610.9308,1453.5,614.9308,1449.5,610.9308,1453.5,619.9308" style="stroke: #606060; stroke-width: 1.0;"/>
    <text fill="#000000" font-family="Roboto" font-size="11" lengthAdjust="spacingAndGlyphs" textLength="26" x="1454.5" y="586.5264">owns</text>
    <path d="M631.155,520.403 C660.936,548.354 702.879,587.719 733.521,616.4777 " fill="none" style="stroke: #606060; stroke-width: 1.0;"/>
    <polygon fill="#606060" points="737.2,619.9308,733.3747,610.8552,733.5541,616.5092,727.9001,616.6886,737.2,619.9308" style="stroke: #606060; stroke-width: 1.0;"/>
    <text fill="#000000" font-family="Roboto" font-size="11" lengthAdjust="spacingAndGlyphs" textLength="27" x="706.5" y="586.5264">issue</text>
    <path d="M1493.23,520.403 C1525.5,548.354 1570.96,587.719 1604.17,616.4777 " fill="none" style="stroke: #606060; stroke-width: 1.0;"/>
    <polygon fill="#606060" points="1608.16,619.9308,1603.9725,611.0165,1604.3794,616.6587,1598.7371,617.0655,1608.16,619.9308" style="stroke: #606060; stroke-width: 1.0;"/>
    <text fill="#000000" font-family="Roboto" font-size="11" lengthAdjust="spacingAndGlyphs" textLength="27" x="1575.5" y="586.5264">issue</text>
  </g>
</svg>
