<?xml version="1.0" encoding="UTF-8" standalone="yes"?>
<svg xmlns="http://www.w3.org/2000/svg" xmlns:xlink="http://www.w3.org/1999/xlink" height="691px" style="width:1596px;height:691px;" version="1.1" viewBox="0 0 1596 691" width="1596px">
  <defs/>
  <g>
<style type="text/css">
@font-face {
  font-family: 'Roboto';
  font-style: normal;
  font-weight: 400;
  src: local('Roboto'), local('Roboto-Regular'), url(https://fonts.gstatic.com/s/roboto/v15/zN7GBFwfMP4uA6AR0HCoLQ.ttf) format('truetype');
}
@font-face {
  font-family: 'Roboto';
  font-style: normal;
  font-weight: 700;
  src: local('Roboto Bold'), local('Roboto-Bold'), url(https://fonts.gstatic.com/s/roboto/v15/d-6IYplOFocCacKzxwXSOKCWcynf_cDxXwCLxiixG1c.ttf) format('truetype');
}
@font-face {
  font-family: 'Roboto';
  font-style: italic;
  font-weight: 400;
  src: local('Roboto Italic'), local('Roboto-Italic'), url(https://fonts.gstatic.com/s/roboto/v15/W4wDsBUluyw0tK3tykhXEfesZW2xOQ-xsNqO47m55DA.ttf) format('truetype');
}
@font-face {
  font-family: 'Roboto';
  font-style: italic;
  font-weight: 700;
  src: local('Roboto Bold Italic'), local('Roboto-BoldItalic'), url(https://fonts.gstatic.com/s/roboto/v15/t6Nd4cfPRhZP44Q5QAjcC50EAVxt0G0biEntp43Qt6E.ttf) format('truetype');
}
</style>
    <rect fill="#FEFEFE" height="70.1162" rx="12.5" ry="12.5" style="stroke: #303030; stroke-width: 1.5;" width="276" x="319.5" y="134"/>
    <line style="stroke: #303030; stroke-width: 1.5;" x1="319.5" x2="595.5" y1="162.4639" y2="162.4639"/>
    <text fill="#000000" font-family="Roboto" font-size="14" font-weight="bold" lengthAdjust="spacingAndGlyphs" textLength="37" x="439" y="153.6699">User1</text>
    <text fill="#000000" font-family="Roboto" font-size="12" lengthAdjust="spacingAndGlyphs" textLength="256" x="324.5" y="180.0381">id1: "281220eb-a4ef-4d03-b666-bdec4b26c5f7"</text>
    <text fill="#000000" font-family="Roboto" font-size="12" lengthAdjust="spacingAndGlyphs" textLength="181" x="324.5" y="195.8643">email: "example1@example.com"</text>
    <rect fill="#FEFEFE" height="70.1162" rx="12.5" ry="12.5" style="stroke: #303030; stroke-width: 1.5;" width="276" x="636.5" y="134"/>
    <line style="stroke: #303030; stroke-width: 1.5;" x1="636.5" x2="912.5" y1="162.4639" y2="162.4639"/>
    <text fill="#000000" font-family="Roboto" font-size="14" font-weight="bold" lengthAdjust="spacingAndGlyphs" textLength="37" x="756" y="153.6699">User2</text>
    <text fill="#000000" font-family="Roboto" font-size="12" lengthAdjust="spacingAndGlyphs" textLength="256" x="641.5" y="180.0381">id2: "281220eb-a4ef-4d03-b666-bdec4b26c5f7"</text>
    <text fill="#000000" font-family="Roboto" font-size="12" lengthAdjust="spacingAndGlyphs" textLength="181" x="641.5" y="195.8643">email: "example2@example.com"</text>
    <rect fill="#FEFEFE" height="70.1162" rx="12.5" ry="12.5" style="stroke: #303030; stroke-width: 1.5;" width="353" x="948" y="134"/>
    <line style="stroke: #303030; stroke-width: 1.5;" x1="948" x2="1301" y1="162.4639" y2="162.4639"/>
    <text fill="#000000" font-family="Roboto" font-size="14" font-weight="bold" lengthAdjust="spacingAndGlyphs" textLength="39" x="1105" y="153.6699">UserN</text>
    <text fill="#000000" font-family="Roboto" font-size="12" lengthAdjust="spacingAndGlyphs" textLength="333" x="953" y="180.0381">idN: "NNNNNNNN-NNNN-NNNN-NNNN-NNNNNNNNNNNN"</text>
    <text fill="#000000" font-family="Roboto" font-size="12" lengthAdjust="spacingAndGlyphs" textLength="181" x="953" y="195.8643">email: "example3@example.com"</text>
    <rect fill="#FEFEFE" height="50" rx="12.5" ry="12.5" style="stroke: #303030; stroke-width: 1.5;" width="65" x="742" y="8"/>
    <line style="stroke: #303030; stroke-width: 1.5;" x1="742" x2="807" y1="36.4639" y2="36.4639"/>
    <text fill="#000000" font-family="Roboto" font-size="14" font-weight="bold" lengthAdjust="spacingAndGlyphs" textLength="45" x="752" y="27.6699">Person</text>
    <rect fill="#FEFEFE" height="70.1162" rx="12.5" ry="12.5" style="stroke: #303030; stroke-width: 1.5;" width="135" x="370" y="280"/>
    <line style="stroke: #303030; stroke-width: 1.5;" x1="370" x2="505" y1="308.4639" y2="308.4639"/>
    <text fill="#000000" font-family="Roboto" font-size="14" font-weight="bold" lengthAdjust="spacingAndGlyphs" textLength="57" x="409" y="299.6699">Identity1</text>
    <text fill="#000000" font-family="Roboto" font-size="12" lengthAdjust="spacingAndGlyphs" textLength="39" x="375" y="326.0381">"id": "1"</text>
    <text fill="#000000" font-family="Roboto" font-size="12" lengthAdjust="spacingAndGlyphs" textLength="115" x="375" y="341.8643">"name": "Ivanov Ivan"</text>
    <rect fill="#FEFEFE" height="70.1162" rx="12.5" ry="12.5" style="stroke: #303030; stroke-width: 1.5;" width="135" x="707" y="280"/>
    <line style="stroke: #303030; stroke-width: 1.5;" x1="707" x2="842" y1="308.4639" y2="308.4639"/>
    <text fill="#000000" font-family="Roboto" font-size="14" font-weight="bold" lengthAdjust="spacingAndGlyphs" textLength="57" x="746" y="299.6699">Identity2</text>
    <text fill="#000000" font-family="Roboto" font-size="12" lengthAdjust="spacingAndGlyphs" textLength="39" x="712" y="326.0381">"id": "2"</text>
    <text fill="#000000" font-family="Roboto" font-size="12" lengthAdjust="spacingAndGlyphs" textLength="115" x="712" y="341.8643">"name": "Ivanov Ivan"</text>
    <rect fill="#FEFEFE" height="70.1162" rx="12.5" ry="12.5" style="stroke: #303030; stroke-width: 1.5;" width="135" x="894" y="280"/>
    <line style="stroke: #303030; stroke-width: 1.5;" x1="894" x2="1029" y1="308.4639" y2="308.4639"/>
    <text fill="#000000" font-family="Roboto" font-size="14" font-weight="bold" lengthAdjust="spacingAndGlyphs" textLength="57" x="933" y="299.6699">Identity3</text>
    <text fill="#000000" font-family="Roboto" font-size="12" lengthAdjust="spacingAndGlyphs" textLength="39" x="899" y="326.0381">"id": "3"</text>
    <text fill="#000000" font-family="Roboto" font-size="12" lengthAdjust="spacingAndGlyphs" textLength="115" x="899" y="341.8643">"name": "Ivanov Ivan"</text>
    <rect fill="#FEFEFE" height="70.1162" rx="12.5" ry="12.5" style="stroke: #303030; stroke-width: 1.5;" width="86" x="1081.5" y="280"/>
    <line style="stroke: #303030; stroke-width: 1.5;" x1="1081.5" x2="1167.5" y1="308.4639" y2="308.4639"/>
    <text fill="#000000" font-family="Roboto" font-size="14" font-weight="bold" lengthAdjust="spacingAndGlyphs" textLength="59" x="1095" y="299.6699">IdentityN</text>
    <text fill="#000000" font-family="Roboto" font-size="12" lengthAdjust="spacingAndGlyphs" textLength="42" x="1086.5" y="326.0381">idN: "N"</text>
    <text fill="#000000" font-family="Roboto" font-size="12" lengthAdjust="spacingAndGlyphs" textLength="66" x="1086.5" y="341.8643">name: "N N"</text>
    <rect fill="#FEFEFE" height="117.5947" rx="12.5" ry="12.5" style="stroke: #303030; stroke-width: 1.5;" width="257" x="6" y="426"/>
    <line style="stroke: #303030; stroke-width: 1.5;" x1="6" x2="263" y1="454.4639" y2="454.4639"/>
    <text fill="#000000" font-family="Roboto" font-size="14" font-weight="bold" lengthAdjust="spacingAndGlyphs" textLength="57" x="106" y="445.6699">PrivDoc1</text>
    <text fill="#000000" font-family="Roboto" font-size="12" lengthAdjust="spacingAndGlyphs" textLength="193" x="11" y="472.0381">"type": "RUSDomesticPassportData"</text>
    <text fill="#000000" font-family="Roboto" font-size="12" lengthAdjust="spacingAndGlyphs" textLength="106" x="11" y="487.8643">"number": "123476"</text>
    <text fill="#000000" font-family="Roboto" font-size="12" lengthAdjust="spacingAndGlyphs" textLength="133" x="11" y="503.6904">"familyName": "Иванов"</text>
    <text fill="#000000" font-family="Roboto" font-size="12" lengthAdjust="spacingAndGlyphs" textLength="237" x="11" y="519.5166">"type": "RUSRetireeInsuranceCertificateData"</text>
    <text fill="#000000" font-family="Roboto" font-size="12" lengthAdjust="spacingAndGlyphs" textLength="150" x="11" y="535.3428">"number": "123-456-789 76"</text>
    <rect fill="#FEFEFE" height="117.5947" rx="12.5" ry="12.5" style="stroke: #303030; stroke-width: 1.5;" width="257" x="717" y="426"/>
    <line style="stroke: #303030; stroke-width: 1.5;" x1="717" x2="974" y1="454.4639" y2="454.4639"/>
    <text fill="#000000" font-family="Roboto" font-size="14" font-weight="bold" lengthAdjust="spacingAndGlyphs" textLength="57" x="817" y="445.6699">PrivDoc3</text>
    <text fill="#000000" font-family="Roboto" font-size="12" lengthAdjust="spacingAndGlyphs" textLength="193" x="722" y="472.0381">"type": "RUSDomesticPassportData"</text>
    <text fill="#000000" font-family="Roboto" font-size="12" lengthAdjust="spacingAndGlyphs" textLength="106" x="722" y="487.8643">"number": "123476"</text>
    <text fill="#000000" font-family="Roboto" font-size="12" lengthAdjust="spacingAndGlyphs" textLength="133" x="722" y="503.6904">"familyName": "Иванов"</text>
    <text fill="#000000" font-family="Roboto" font-size="12" lengthAdjust="spacingAndGlyphs" textLength="237" x="722" y="519.5166">"type": "RUSRetireeInsuranceCertificateData"</text>
    <text fill="#000000" font-family="Roboto" font-size="12" lengthAdjust="spacingAndGlyphs" textLength="150" x="722" y="535.3428">"number": "123-456-789 76"</text>
    <rect fill="#FEFEFE" height="70.1162" rx="12.5" ry="12.5" style="stroke: #303030; stroke-width: 1.5;" width="174" x="298.5" y="450"/>
    <line style="stroke: #303030; stroke-width: 1.5;" x1="298.5" x2="472.5" y1="478.4639" y2="478.4639"/>
    <text fill="#000000" font-family="Roboto" font-size="14" font-weight="bold" lengthAdjust="spacingAndGlyphs" textLength="82" x="344.5" y="469.6699">Destination1</text>
    <text fill="#000000" font-family="Roboto" font-size="12" lengthAdjust="spacingAndGlyphs" textLength="39" x="303.5" y="496.0381">"id": "1"</text>
    <text fill="#000000" font-family="Roboto" font-size="12" lengthAdjust="spacingAndGlyphs" textLength="154" x="303.5" y="511.8643">"name": "User-friendly name"</text>
    <rect fill="#FEFEFE" height="70.1162" rx="12.5" ry="12.5" style="stroke: #303030; stroke-width: 1.5;" width="174" x="1009.5" y="450"/>
    <line style="stroke: #303030; stroke-width: 1.5;" x1="1009.5" x2="1183.5" y1="478.4639" y2="478.4639"/>
    <text fill="#000000" font-family="Roboto" font-size="14" font-weight="bold" lengthAdjust="spacingAndGlyphs" textLength="82" x="1055.5" y="469.6699">Destination3</text>
    <text fill="#000000" font-family="Roboto" font-size="12" lengthAdjust="spacingAndGlyphs" textLength="39" x="1014.5" y="496.0381">"id": "1"</text>
    <text fill="#000000" font-family="Roboto" font-size="12" lengthAdjust="spacingAndGlyphs" textLength="154" x="1014.5" y="511.8643">"name": "User-friendly name"</text>
    <rect fill="#FEFEFE" height="54.29" rx="12.5" ry="12.5" style="stroke: #303030; stroke-width: 1.5;" width="208" x="281.5" y="628"/>
    <line style="stroke: #303030; stroke-width: 1.5;" x1="281.5" x2="489.5" y1="656.4639" y2="656.4639"/>
    <text fill="#000000" font-family="Roboto" font-size="14" font-weight="bold" lengthAdjust="spacingAndGlyphs" textLength="118" x="326.5" y="647.6699">DestinationGrant1</text>
    <text fill="#000000" font-family="Roboto" font-size="12" lengthAdjust="spacingAndGlyphs" textLength="188" x="286.5" y="674.0381">"token": "eyJt...MTowNDowOVoifQ"</text>
    <rect fill="#FEFEFE" height="54.29" rx="12.5" ry="12.5" style="stroke: #303030; stroke-width: 1.5;" width="208" x="992.5" y="628"/>
    <line style="stroke: #303030; stroke-width: 1.5;" x1="992.5" x2="1200.5" y1="656.4639" y2="656.4639"/>
    <text fill="#000000" font-family="Roboto" font-size="14" font-weight="bold" lengthAdjust="spacingAndGlyphs" textLength="118" x="1037.5" y="647.6699">DestinationGrant3</text>
    <text fill="#000000" font-family="Roboto" font-size="12" lengthAdjust="spacingAndGlyphs" textLength="188" x="997.5" y="674.0381">"token": "eyJt...MTowNDowOVoifQ"</text>
    <rect fill="#FEFEFE" height="70.1162" rx="12.5" ry="12.5" style="stroke: #303030; stroke-width: 1.5;" width="174" x="507.5" y="450"/>
    <line style="stroke: #303030; stroke-width: 1.5;" x1="507.5" x2="681.5" y1="478.4639" y2="478.4639"/>
    <text fill="#000000" font-family="Roboto" font-size="14" font-weight="bold" lengthAdjust="spacingAndGlyphs" textLength="49" x="570" y="469.6699">Wallet1</text>
    <text fill="#000000" font-family="Roboto" font-size="12" lengthAdjust="spacingAndGlyphs" textLength="39" x="512.5" y="496.0381">"id": "1"</text>
    <text fill="#000000" font-family="Roboto" font-size="12" lengthAdjust="spacingAndGlyphs" textLength="154" x="512.5" y="511.8643">"name": "User-friendly name"</text>
    <rect fill="#FEFEFE" height="70.1162" rx="12.5" ry="12.5" style="stroke: #303030; stroke-width: 1.5;" width="174" x="1218.5" y="450"/>
    <line style="stroke: #303030; stroke-width: 1.5;" x1="1218.5" x2="1392.5" y1="478.4639" y2="478.4639"/>
    <text fill="#000000" font-family="Roboto" font-size="14" font-weight="bold" lengthAdjust="spacingAndGlyphs" textLength="49" x="1281" y="469.6699">Wallet3</text>
    <text fill="#000000" font-family="Roboto" font-size="12" lengthAdjust="spacingAndGlyphs" textLength="39" x="1223.5" y="496.0381">"id": "1"</text>
    <text fill="#000000" font-family="Roboto" font-size="12" lengthAdjust="spacingAndGlyphs" textLength="154" x="1223.5" y="511.8643">"name": "User-friendly name"</text>
    <rect fill="#FEFEFE" height="70.1162" rx="12.5" ry="12.5" style="stroke: #303030; stroke-width: 1.5;" width="110" x="532.5" y="620"/>
    <line style="stroke: #303030; stroke-width: 1.5;" x1="532.5" x2="642.5" y1="648.4639" y2="648.4639"/>
    <text fill="#000000" font-family="Roboto" font-size="14" font-weight="bold" lengthAdjust="spacingAndGlyphs" textLength="60" x="557.5" y="639.6699">Account1</text>
    <text fill="#000000" font-family="Roboto" font-size="12" lengthAdjust="spacingAndGlyphs" textLength="64" x="537.5" y="666.0381">"amount": 0</text>
    <text fill="#000000" font-family="Roboto" font-size="12" lengthAdjust="spacingAndGlyphs" textLength="90" x="537.5" y="681.8643">"currency": "RUB"</text>
    <rect fill="#FEFEFE" height="70.1162" rx="12.5" ry="12.5" style="stroke: #303030; stroke-width: 1.5;" width="110" x="1242.5" y="620"/>
    <line style="stroke: #303030; stroke-width: 1.5;" x1="1242.5" x2="1352.5" y1="648.4639" y2="648.4639"/>
    <text fill="#000000" font-family="Roboto" font-size="14" font-weight="bold" lengthAdjust="spacingAndGlyphs" textLength="60" x="1267.5" y="639.6699">Account3</text>
    <text fill="#000000" font-family="Roboto" font-size="12" lengthAdjust="spacingAndGlyphs" textLength="64" x="1247.5" y="666.0381">"amount": 0</text>
    <text fill="#000000" font-family="Roboto" font-size="12" lengthAdjust="spacingAndGlyphs" textLength="90" x="1247.5" y="681.8643">"currency": "RUB"</text>
    <rect fill="#FEFEFE" height="70.1162" rx="12.5" ry="12.5" style="stroke: #303030; stroke-width: 1.5;" width="208" x="677.5" y="620"/>
    <line style="stroke: #303030; stroke-width: 1.5;" x1="677.5" x2="885.5" y1="648.4639" y2="648.4639"/>
    <text fill="#000000" font-family="Roboto" font-size="14" font-weight="bold" lengthAdjust="spacingAndGlyphs" textLength="85" x="739" y="639.6699">WalletGrant1</text>
    <text fill="#000000" font-family="Roboto" font-size="12" lengthAdjust="spacingAndGlyphs" textLength="188" x="682.5" y="666.0381">"token": "eyJt...MTowNDowOVoifQ"</text>
    <text fill="#000000" font-family="Roboto" font-size="12" lengthAdjust="spacingAndGlyphs" textLength="92" x="682.5" y="681.8643">"amount": 10000</text>
    <rect fill="#FEFEFE" height="70.1162" rx="12.5" ry="12.5" style="stroke: #303030; stroke-width: 1.5;" width="208" x="1387.5" y="620"/>
    <line style="stroke: #303030; stroke-width: 1.5;" x1="1387.5" x2="1595.5" y1="648.4639" y2="648.4639"/>
    <text fill="#000000" font-family="Roboto" font-size="14" font-weight="bold" lengthAdjust="spacingAndGlyphs" textLength="85" x="1449" y="639.6699">WalletGrant3</text>
    <text fill="#000000" font-family="Roboto" font-size="12" lengthAdjust="spacingAndGlyphs" textLength="188" x="1392.5" y="666.0381">"token": "eyJt...MTowNDowOVoifQ"</text>
    <text fill="#000000" font-family="Roboto" font-size="12" lengthAdjust="spacingAndGlyphs" textLength="92" x="1392.5" y="681.8643">"amount": 10000</text>
    <path d="M741.769,47.836 C695.193,67.524 608.178,104.307 542.636,132.012 " fill="none" style="stroke: #606060; stroke-width: 1.0;"/>
    <polygon fill="#606060" points="537.955,133.991,547.8022,134.1707,542.5603,132.044,544.687,126.8021,537.955,133.991" style="stroke: #606060; stroke-width: 1.0;"/>
    <text fill="#000000" font-family="Roboto" font-size="11" lengthAdjust="spacingAndGlyphs" textLength="26" x="645.5" y="100.5264">owns</text>
    <path d="M774.5,58.266 C774.5,77.899 774.5,105.934 774.5,128.752 " fill="none" style="stroke: #606060; stroke-width: 1.0;"/>
    <polygon fill="#606060" points="774.5,133.834,778.5,124.834,774.5,128.834,770.5,124.834,774.5,133.834" style="stroke: #606060; stroke-width: 1.0;"/>
    <text fill="#000000" font-family="Roboto" font-size="11" lengthAdjust="spacingAndGlyphs" textLength="26" x="775.5" y="100.5264">owns</text>
    <path d="M807.113,46.486 C857.594,65.813 956.552,103.7 1030.62,132.056 " fill="none" style="stroke: #606060; stroke-width: 1.0;"/>
    <polygon fill="#606060" points="1035.46,133.91,1028.5015,126.9401,1030.7947,132.1113,1025.6236,134.4045,1035.46,133.91" style="stroke: #606060; stroke-width: 1.0;"/>
    <text fill="#000000" font-family="Roboto" font-size="11" lengthAdjust="spacingAndGlyphs" textLength="26" x="950.5" y="100.5264">owns</text>
    <path d="M452.76,204.126 C449.83,225.223 446.058,252.385 442.997,274.424 " fill="none" style="stroke: #606060; stroke-width: 1.0;"/>
    <polygon fill="#606060" points="442.275,279.62,447.4742,271.2553,442.9623,274.6675,439.5501,270.1556,442.275,279.62" style="stroke: #606060; stroke-width: 1.0;"/>
    <text fill="#000000" font-family="Roboto" font-size="11" lengthAdjust="spacingAndGlyphs" textLength="26" x="449.5" y="246.5264">owns</text>
    <path d="M774.5,204.126 C774.5,225.223 774.5,252.385 774.5,274.424 " fill="none" style="stroke: #606060; stroke-width: 1.0;"/>
    <polygon fill="#606060" points="774.5,279.62,778.5,270.62,774.5,274.62,770.5,270.62,774.5,279.62" style="stroke: #606060; stroke-width: 1.0;"/>
    <text fill="#000000" font-family="Roboto" font-size="11" lengthAdjust="spacingAndGlyphs" textLength="26" x="775.5" y="246.5264">owns</text>
    <path d="M818.816,204.126 C847.125,225.925 883.844,254.2 912.942,276.608 " fill="none" style="stroke: #606060; stroke-width: 1.0;"/>
    <polygon fill="#606060" points="917.178,279.87,912.487,271.2101,913.2162,276.8197,907.6066,277.5489,917.178,279.87" style="stroke: #606060; stroke-width: 1.0;"/>
    <text fill="#000000" font-family="Roboto" font-size="11" lengthAdjust="spacingAndGlyphs" textLength="26" x="875.5" y="246.5264">owns</text>
    <path d="M1124.5,204.126 C1124.5,225.223 1124.5,252.385 1124.5,274.424 " fill="none" style="stroke: #606060; stroke-width: 1.0;"/>
    <polygon fill="#606060" points="1124.5,279.62,1128.5,270.62,1124.5,274.62,1120.5,270.62,1124.5,279.62" style="stroke: #606060; stroke-width: 1.0;"/>
    <text fill="#000000" font-family="Roboto" font-size="11" lengthAdjust="spacingAndGlyphs" textLength="26" x="1125.5" y="246.5264">owns</text>
    <path d="M375.818,350.2 C337.928,371.208 288.306,398.722 243.918,423.332 " fill="none" style="stroke: #606060; stroke-width: 1.0;"/>
    <polygon fill="#606060" points="239.364,425.857,249.1748,424.9916,243.7369,423.4327,245.2958,417.9948,239.364,425.857" style="stroke: #606060; stroke-width: 1.0;"/>
    <text fill="#000000" font-family="Roboto" font-size="11" lengthAdjust="spacingAndGlyphs" textLength="26" x="323.5" y="392.5264">owns</text>
    <path d="M937.746,350.403 C923.585,370.912 905.181,397.566 888.54,421.666 " fill="none" style="stroke: #606060; stroke-width: 1.0;"/>
    <polygon fill="#606060" points="885.671,425.822,894.0768,420.6895,888.5124,421.7078,887.4941,416.1433,885.671,425.822" style="stroke: #606060; stroke-width: 1.0;"/>
    <text fill="#000000" font-family="Roboto" font-size="11" lengthAdjust="spacingAndGlyphs" textLength="26" x="918.5" y="392.5264">owns</text>
    <path d="M426.852,350.403 C418.341,377.899 406.411,416.442 397.551,445.067 " fill="none" style="stroke: #606060; stroke-width: 1.0;"/>
    <polygon fill="#606060" points="396.045,449.931,402.5278,442.5166,397.5238,445.1547,394.8857,440.1506,396.045,449.931" style="stroke: #606060; stroke-width: 1.0;"/>
    <text fill="#000000" font-family="Roboto" font-size="11" lengthAdjust="spacingAndGlyphs" textLength="26" x="419.5" y="392.5264">owns</text>
    <path d="M989.145,350.403 C1011.42,378.126 1042.72,417.08 1065.78,445.774 " fill="none" style="stroke: #606060; stroke-width: 1.0;"/>
    <polygon fill="#606060" points="1069.12,449.931,1066.6042,440.4089,1065.9896,446.0322,1060.3662,445.4176,1069.12,449.931" style="stroke: #606060; stroke-width: 1.0;"/>
    <text fill="#000000" font-family="Roboto" font-size="11" lengthAdjust="spacingAndGlyphs" textLength="26" x="1026.5" y="392.5264">owns</text>
    <path d="M385.5,520.403 C385.5,550.406 385.5,593.5628 385.5,622.6333 " fill="none" style="stroke: #606060; stroke-width: 1.0;"/>
    <polygon fill="#606060" points="385.5,627.8912,389.5,618.8912,385.5,622.8912,381.5,618.8912,385.5,627.8912" style="stroke: #606060; stroke-width: 1.0;"/>
    <text fill="#000000" font-family="Roboto" font-size="11" lengthAdjust="spacingAndGlyphs" textLength="27" x="386.5" y="586.5264">issue</text>
    <path d="M1096.5,520.403 C1096.5,550.406 1096.5,593.5628 1096.5,622.6333 " fill="none" style="stroke: #606060; stroke-width: 1.0;"/>
    <polygon fill="#606060" points="1096.5,627.8912,1100.5,618.8912,1096.5,622.8912,1092.5,618.8912,1096.5,627.8912" style="stroke: #606060; stroke-width: 1.0;"/>
    <text fill="#000000" font-family="Roboto" font-size="11" lengthAdjust="spacingAndGlyphs" textLength="27" x="1097.5" y="586.5264">issue</text>
    <path d="M469.65,350.403 C495.665,378.24 532.26,417.399 559.106,446.126 " fill="none" style="stroke: #606060; stroke-width: 1.0;"/>
    <polygon fill="#606060" points="562.661,449.931,559.4376,440.6246,559.2468,446.2782,553.5931,446.0873,562.661,449.931" style="stroke: #606060; stroke-width: 1.0;"/>
    <text fill="#000000" font-family="Roboto" font-size="11" lengthAdjust="spacingAndGlyphs" textLength="26" x="512.5" y="392.5264">owns</text>
    <path d="M1029.09,345.519 C1077.3,366.959 1143.43,397.153 1200.5,426 C1213.78,432.71 1227.82,440.191 1241.16,447.49 " fill="none" style="stroke: #606060; stroke-width: 1.0;"/>
    <polygon fill="#606060" points="1245.66,449.957,1239.7058,442.1118,1241.2802,447.5452,1235.8468,449.1196,1245.66,449.957" style="stroke: #606060; stroke-width: 1.0;"/>
    <text fill="#000000" font-family="Roboto" font-size="11" lengthAdjust="spacingAndGlyphs" textLength="26" x="1137.5" y="392.5264">owns</text>
    <path d="M593.067,520.403 C591.926,547.786 590.328,586.124 589.137,614.7112 " fill="none" style="stroke: #606060; stroke-width: 1.0;"/>
    <polygon fill="#606060" points="588.92,619.9308,593.2914,611.1052,589.1283,614.9351,585.2984,610.772,588.92,619.9308" style="stroke: #606060; stroke-width: 1.0;"/>
    <text fill="#000000" font-family="Roboto" font-size="11" lengthAdjust="spacingAndGlyphs" textLength="26" x="592.5" y="586.5264">owns</text>
    <path d="M1303.86,520.403 C1302.56,547.786 1300.73,586.124 1299.37,614.7112 " fill="none" style="stroke: #606060; stroke-width: 1.0;"/>
    <polygon fill="#606060" points="1299.12,619.9308,1303.5434,611.1312,1299.3577,614.9365,1295.5524,610.7508,1299.12,619.9308" style="stroke: #606060; stroke-width: 1.0;"/>
    <text fill="#000000" font-family="Roboto" font-size="11" lengthAdjust="spacingAndGlyphs" textLength="26" x="1302.5" y="586.5264">owns</text>
    <path d="M632.793,520.403 C663.906,548.354 707.723,587.719 739.734,616.4777 " fill="none" style="stroke: #606060; stroke-width: 1.0;"/>
    <polygon fill="#606060" points="743.578,619.9308,739.5561,610.9406,739.8585,616.5893,734.2098,616.8917,743.578,619.9308" style="stroke: #606060; stroke-width: 1.0;"/>
    <text fill="#000000" font-family="Roboto" font-size="11" lengthAdjust="spacingAndGlyphs" textLength="27" x="711.5" y="586.5264">issue</text>
    <path d="M1343.59,520.403 C1374.53,548.354 1418.12,587.719 1449.96,616.4777 " fill="none" style="stroke: #606060; stroke-width: 1.0;"/>
    <polygon fill="#606060" points="1453.78,619.9308,1449.7707,610.9349,1450.0652,616.5841,1444.416,616.8786,1453.78,619.9308" style="stroke: #606060; stroke-width: 1.0;"/>
    <text fill="#000000" font-family="Roboto" font-size="11" lengthAdjust="spacingAndGlyphs" textLength="27" x="1422.5" y="586.5264">issue</text>
  </g>
</svg>
