<?xml version="1.0" encoding="UTF-8" standalone="no"?>
<svg xmlns="http://www.w3.org/2000/svg" xmlns:xlink="http://www.w3.org/1999/xlink" contentScriptType="application/ecmascript" contentStyleType="text/css" height="992px" preserveAspectRatio="none" style="width:651px;height:992px;" version="1.1" viewBox="0 0 651 992" width="651px" zoomAndPan="magnify">
  <defs/>
  <g>
<style type="text/css">
@font-face {
  font-family: 'Roboto';
  font-style: normal;
  font-weight: 400;
  src: local('Roboto'), local('Roboto-Regular'), url(https://fonts.gstatic.com/s/roboto/v15/zN7GBFwfMP4uA6AR0HCoLQ.ttf) format('truetype');
}
@font-face {
  font-family: 'Roboto';
  font-style: normal;
  font-weight: 700;
  src: local('Roboto Bold'), local('Roboto-Bold'), url(https://fonts.gstatic.com/s/roboto/v15/d-6IYplOFocCacKzxwXSOKCWcynf_cDxXwCLxiixG1c.ttf) format('truetype');
}
@font-face {
  font-family: 'Roboto';
  font-style: italic;
  font-weight: 400;
  src: local('Roboto Italic'), local('Roboto-Italic'), url(https://fonts.gstatic.com/s/roboto/v15/W4wDsBUluyw0tK3tykhXEfesZW2xOQ-xsNqO47m55DA.ttf) format('truetype');
}
@font-face {
  font-family: 'Roboto';
  font-style: italic;
  font-weight: 700;
  src: local('Roboto Bold Italic'), local('Roboto-BoldItalic'), url(https://fonts.gstatic.com/s/roboto/v15/t6Nd4cfPRhZP44Q5QAjcC50EAVxt0G0biEntp43Qt6E.ttf) format('truetype');
}
</style>
    <text fill="#606060" font-family="Roboto" font-size="12" font-weight="bold" lengthAdjust="spacingAndGlyphs" textLength="241" x="211.25" y="21.6016">Custom form successful payment flow</text>
    <text fill="#606060" font-family="Roboto" font-size="12" font-weight="bold" lengthAdjust="spacingAndGlyphs" textLength="103" x="280.25" y="35.7344">using webhooks</text>
    <line style="stroke: #303030; stroke-width: 1.0; stroke-dasharray: 5.0,5.0;" x1="45" x2="45" y1="76.7539" y2="962.1582"/>
    <line style="stroke: #303030; stroke-width: 1.0; stroke-dasharray: 5.0,5.0;" x1="202.5" x2="202.5" y1="76.7539" y2="962.1582"/>
    <line style="stroke: #303030; stroke-width: 1.0; stroke-dasharray: 5.0,5.0;" x1="328.5" x2="328.5" y1="76.7539" y2="962.1582"/>
    <line style="stroke: #303030; stroke-width: 1.0; stroke-dasharray: 5.0,5.0;" x1="573.5" x2="573.5" y1="76.7539" y2="962.1582"/>
    <rect fill="#FEFEFE" height="30.4883" style="stroke: #303030; stroke-width: 1.5;" width="75" x="8" y="45.2656"/>
    <text fill="#000000" font-family="Roboto" font-size="14" lengthAdjust="spacingAndGlyphs" textLength="61" x="15" y="65.8008">Payer UA</text>
    <rect fill="#FEFEFE" height="30.4883" style="stroke: #303030; stroke-width: 1.5;" width="75" x="8" y="961.1582"/>
    <text fill="#000000" font-family="Roboto" font-size="14" lengthAdjust="spacingAndGlyphs" textLength="61" x="15" y="981.6934">Payer UA</text>
    <rect fill="#FEFEFE" height="30.4883" style="stroke: #303030; stroke-width: 1.5;" width="94" x="155.5" y="45.2656"/>
    <text fill="#000000" font-family="Roboto" font-size="14" lengthAdjust="spacingAndGlyphs" textLength="80" x="162.5" y="65.8008">tokenizer.js</text>
    <rect fill="#FEFEFE" height="30.4883" style="stroke: #303030; stroke-width: 1.5;" width="94" x="155.5" y="961.1582"/>
    <text fill="#000000" font-family="Roboto" font-size="14" lengthAdjust="spacingAndGlyphs" textLength="80" x="162.5" y="981.6934">tokenizer.js</text>
    <rect fill="#FEFEFE" height="30.4883" style="stroke: #303030; stroke-width: 1.5;" width="139" x="259.5" y="45.2656"/>
    <text fill="#000000" font-family="Roboto" font-size="14" lengthAdjust="spacingAndGlyphs" textLength="125" x="266.5" y="65.8008">Merchant Backend</text>
    <rect fill="#FEFEFE" height="30.4883" style="stroke: #303030; stroke-width: 1.5;" width="139" x="259.5" y="961.1582"/>
    <text fill="#000000" font-family="Roboto" font-size="14" lengthAdjust="spacingAndGlyphs" textLength="125" x="266.5" y="981.6934">Merchant Backend</text>
    <rect fill="#FEFEFE" height="30.4883" style="stroke: #303030; stroke-width: 1.5;" width="133" x="507.5" y="45.2656"/>
    <text fill="#000000" font-family="Roboto" font-size="14" lengthAdjust="spacingAndGlyphs" textLength="119" x="514.5" y="65.8008">Platform Backend</text>
    <rect fill="#FEFEFE" height="30.4883" style="stroke: #303030; stroke-width: 1.5;" width="133" x="507.5" y="961.1582"/>
    <text fill="#000000" font-family="Roboto" font-size="14" lengthAdjust="spacingAndGlyphs" textLength="119" x="514.5" y="981.6934">Platform Backend</text>
    <polygon fill="#606060" points="317,99.7539,327,103.7539,317,107.7539,321,103.7539" style="stroke: #606060; stroke-width: 1.0;"/>
    <line style="stroke: #606060; stroke-width: 1.0;" x1="45.5" x2="323" y1="103.7539" y2="103.7539"/>
    <text fill="#000000" font-family="Roboto" font-size="10" lengthAdjust="spacingAndGlyphs" textLength="114" x="52.5" y="100.4219">Инициировать покупку</text>
    <line style="stroke: #606060; stroke-width: 1.0;" x1="329" x2="371" y1="142.0859" y2="142.0859"/>
    <line style="stroke: #606060; stroke-width: 1.0;" x1="371" x2="371" y1="142.0859" y2="155.0859"/>
    <line style="stroke: #606060; stroke-width: 1.0;" x1="330" x2="371" y1="155.0859" y2="155.0859"/>
    <polygon fill="#606060" points="340,151.0859,330,155.0859,340,159.0859,336,155.0859" style="stroke: #606060; stroke-width: 1.0;"/>
    <text fill="#000000" font-family="Roboto" font-size="10" lengthAdjust="spacingAndGlyphs" textLength="115" x="336" y="126.1992">Зарезервировать товар</text>
    <text fill="#000000" font-family="Roboto" font-size="10" lengthAdjust="spacingAndGlyphs" textLength="151" x="339" y="137.9766">Сгенерировать invoiceContext</text>
    <polygon fill="#606060" points="562,176.0859,572,180.0859,562,184.0859,566,180.0859" style="stroke: #606060; stroke-width: 1.0;"/>
    <line style="stroke: #606060; stroke-width: 1.0;" x1="329" x2="568" y1="180.0859" y2="180.0859"/>
    <text fill="#000000" font-family="Roboto" font-size="10" lengthAdjust="spacingAndGlyphs" textLength="187" x="336" y="176.7539">createInvoice(invoiceContext, API Key)</text>
    <polygon fill="#606060" points="340,201.8633,330,205.8633,340,209.8633,336,205.8633" style="stroke: #606060; stroke-width: 1.0;"/>
    <line style="stroke: #606060; stroke-width: 1.0;" x1="334" x2="573" y1="205.8633" y2="205.8633"/>
    <text fill="#000000" font-family="Roboto" font-size="10" lengthAdjust="spacingAndGlyphs" textLength="97" x="346" y="202.5313">201(invoiceContext)</text>
    <polygon fill="#606060" points="562,227.6406,572,231.6406,562,235.6406,566,231.6406" style="stroke: #606060; stroke-width: 1.0;"/>
    <line style="stroke: #606060; stroke-width: 1.0;" x1="329" x2="568" y1="231.6406" y2="231.6406"/>
    <text fill="#000000" font-family="Roboto" font-size="10" lengthAdjust="spacingAndGlyphs" textLength="221" x="336" y="228.3086">createInvoiceAccessToken(invoiceID, API Key)</text>
    <polygon fill="#606060" points="340,253.418,330,257.418,340,261.418,336,257.418" style="stroke: #606060; stroke-width: 1.0;"/>
    <line style="stroke: #606060; stroke-width: 1.0;" x1="334" x2="573" y1="257.418" y2="257.418"/>
    <text fill="#000000" font-family="Roboto" font-size="10" lengthAdjust="spacingAndGlyphs" textLength="62" x="346" y="254.0859">201(payload)</text>
    <polygon fill="#606060" points="56.5,279.1953,46.5,283.1953,56.5,287.1953,52.5,283.1953" style="stroke: #606060; stroke-width: 1.0;"/>
    <line style="stroke: #606060; stroke-width: 1.0;" x1="50.5" x2="328" y1="283.1953" y2="283.1953"/>
    <text fill="#000000" font-family="Roboto" font-size="10" lengthAdjust="spacingAndGlyphs" textLength="126" x="62.5" y="279.8633">Ok(Render Payment Form)</text>
    <polygon fill="#606060" points="190.5,304.9727,200.5,308.9727,190.5,312.9727,194.5,308.9727" style="stroke: #606060; stroke-width: 1.0;"/>
    <line style="stroke: #606060; stroke-width: 1.0;" x1="45.5" x2="196.5" y1="308.9727" y2="308.9727"/>
    <text fill="#000000" font-family="Roboto" font-size="10" lengthAdjust="spacingAndGlyphs" textLength="133" x="52.5" y="305.6406">"ClickPayButton(CardData)"</text>
    <polygon fill="#606060" points="562,342.75,572,346.75,562,350.75,566,346.75" style="stroke: #606060; stroke-width: 1.0;"/>
    <line style="stroke: #606060; stroke-width: 1.0;" x1="202.5" x2="568" y1="346.75" y2="346.75"/>
    <text fill="#000000" font-family="Roboto" font-size="10" lengthAdjust="spacingAndGlyphs" textLength="168" x="209.5" y="331.418">createPaymentToolToken(payload,</text>
    <text fill="#000000" font-family="Roboto" font-size="10" lengthAdjust="spacingAndGlyphs" textLength="100" x="209.5" y="343.1953">invoiceAccessToken)</text>
    <polygon fill="#606060" points="213.5,380.3047,203.5,384.3047,213.5,388.3047,209.5,384.3047" style="stroke: #606060; stroke-width: 1.0;"/>
    <line style="stroke: #606060; stroke-width: 1.0;" x1="207.5" x2="573" y1="384.3047" y2="384.3047"/>
    <text fill="#000000" font-family="Roboto" font-size="10" lengthAdjust="spacingAndGlyphs" textLength="117" x="219.5" y="368.9727">201(paymentToolToken,</text>
    <text fill="#000000" font-family="Roboto" font-size="10" lengthAdjust="spacingAndGlyphs" textLength="102" x="219.5" y="380.75">paymentToolSession)</text>
    <polygon fill="#606060" points="56.5,429.8594,46.5,433.8594,56.5,437.8594,52.5,433.8594" style="stroke: #606060; stroke-width: 1.0;"/>
    <line style="stroke: #606060; stroke-width: 1.0;" x1="50.5" x2="201.5" y1="433.8594" y2="433.8594"/>
    <text fill="#000000" font-family="Roboto" font-size="10" lengthAdjust="spacingAndGlyphs" textLength="125" x="62.5" y="406.5273">Pass(invoiceAccessToken,</text>
    <text fill="#000000" font-family="Roboto" font-size="10" lengthAdjust="spacingAndGlyphs" textLength="96" x="62.5" y="418.3047">paymentToolToken,</text>
    <text fill="#000000" font-family="Roboto" font-size="10" lengthAdjust="spacingAndGlyphs" textLength="102" x="62.5" y="430.082">paymentToolSession)</text>
    <polygon fill="#606060" points="317,479.1914,327,483.1914,317,487.1914,321,483.1914" style="stroke: #606060; stroke-width: 1.0;"/>
    <line style="stroke: #606060; stroke-width: 1.0;" x1="45.5" x2="323" y1="483.1914" y2="483.1914"/>
    <text fill="#000000" font-family="Roboto" font-size="10" lengthAdjust="spacingAndGlyphs" textLength="149" x="52.5" y="455.8594">HTTPPost(invoiceAccessToken,</text>
    <text fill="#000000" font-family="Roboto" font-size="10" lengthAdjust="spacingAndGlyphs" textLength="96" x="52.5" y="467.6367">paymentToolToken,</text>
    <text fill="#000000" font-family="Roboto" font-size="10" lengthAdjust="spacingAndGlyphs" textLength="102" x="52.5" y="479.4141">paymentToolSession)</text>
    <polygon fill="#606060" points="562,528.5234,572,532.5234,562,536.5234,566,532.5234" style="stroke: #606060; stroke-width: 1.0;"/>
    <line style="stroke: #606060; stroke-width: 1.0;" x1="329" x2="568" y1="532.5234" y2="532.5234"/>
    <text fill="#000000" font-family="Roboto" font-size="10" lengthAdjust="spacingAndGlyphs" textLength="176" x="336" y="505.1914">createPayment(invoiceAccessToken,</text>
    <text fill="#000000" font-family="Roboto" font-size="10" lengthAdjust="spacingAndGlyphs" textLength="96" x="336" y="516.9688">paymentToolToken,</text>
    <text fill="#000000" font-family="Roboto" font-size="10" lengthAdjust="spacingAndGlyphs" textLength="102" x="336" y="528.7461">paymentToolSession)</text>
    <polygon fill="#606060" points="340,553.8555,330,557.8555,340,561.8555,336,557.8555" style="stroke: #606060; stroke-width: 1.0;"/>
    <line style="stroke: #606060; stroke-width: 1.0;" x1="334" x2="573" y1="557.8555" y2="557.8555"/>
    <text fill="#000000" font-family="Roboto" font-size="10" lengthAdjust="spacingAndGlyphs" textLength="105" x="346" y="554.5234">201(paymentContext)</text>
    <polygon fill="#606060" points="56.5,603.6328,46.5,607.6328,56.5,611.6328,52.5,607.6328" style="stroke: #606060; stroke-width: 1.0;"/>
    <line style="stroke: #606060; stroke-width: 1.0;" x1="50.5" x2="328" y1="607.6328" y2="607.6328"/>
    <text fill="#000000" font-family="Roboto" font-size="10" lengthAdjust="spacingAndGlyphs" textLength="117" x="62.5" y="580.3008">Ok(invoiceAccessToken,</text>
    <text fill="#000000" font-family="Roboto" font-size="10" lengthAdjust="spacingAndGlyphs" textLength="96" x="62.5" y="592.0781">paymentToolToken,</text>
    <text fill="#000000" font-family="Roboto" font-size="10" lengthAdjust="spacingAndGlyphs" textLength="102" x="62.5" y="603.8555">paymentToolSession)</text>
    <polygon fill="#606060" points="317,640.9648,327,644.9648,317,648.9648,321,644.9648" style="stroke: #606060; stroke-width: 1.0;"/>
    <line style="stroke: #606060; stroke-width: 1.0;" x1="45.5" x2="323" y1="644.9648" y2="644.9648"/>
    <text fill="#000000" font-family="Roboto" font-size="10" lengthAdjust="spacingAndGlyphs" textLength="106" x="52.5" y="629.6328">StartPolling(invoiceID,</text>
    <text fill="#000000" font-family="Roboto" font-size="10" lengthAdjust="spacingAndGlyphs" textLength="100" x="52.5" y="641.4102">invoiceAccessToken)</text>
    <polygon fill="#606060" points="562,678.5195,572,682.5195,562,686.5195,566,682.5195" style="stroke: #606060; stroke-width: 1.0;"/>
    <line style="stroke: #606060; stroke-width: 1.0;" x1="329" x2="568" y1="682.5195" y2="682.5195"/>
    <text fill="#000000" font-family="Roboto" font-size="10" lengthAdjust="spacingAndGlyphs" textLength="129" x="336" y="667.1875">getPaymentByID(invoiceID,</text>
    <text fill="#000000" font-family="Roboto" font-size="10" lengthAdjust="spacingAndGlyphs" textLength="100" x="336" y="678.9648">invoiceAccessToken)</text>
    <rect fill="none" height="68.8652" style="stroke: #000000; stroke-width: 2.0;" width="401" x="249.5" y="698.0742"/>
    <polygon fill="#EEEEEE" points="249.5,698.0742,311.5,698.0742,311.5,705.0742,301.5,715.0742,249.5,715.0742,249.5,698.0742" style="stroke: #000000; stroke-width: 2.0;"/>
    <text fill="#000000" font-family="Roboto" font-size="13" font-weight="bold" lengthAdjust="spacingAndGlyphs" textLength="17" x="264.5" y="711.6426">alt</text>
    <text fill="#000000" font-family="Roboto" font-size="11" font-weight="bold" lengthAdjust="spacingAndGlyphs" textLength="137" x="326.5" y="710.709">[Handle Webhook Event]</text>
    <polygon fill="#606060" points="340,728.3848,330,732.3848,340,736.3848,336,732.3848" style="stroke: #606060; stroke-width: 1.0;"/>
    <line style="stroke: #606060; stroke-width: 1.0;" x1="334" x2="573" y1="732.3848" y2="732.3848"/>
    <text fill="#000000" font-family="Roboto" font-size="10" lengthAdjust="spacingAndGlyphs" textLength="123" x="346" y="729.0527">HTTP POST(InvoiceStatus)</text>
    <polygon fill="#606060" points="562,754.1621,572,758.1621,562,762.1621,566,758.1621" style="stroke: #606060; stroke-width: 1.0;"/>
    <line style="stroke: #606060; stroke-width: 1.0;" x1="329" x2="568" y1="758.1621" y2="758.1621"/>
    <text fill="#000000" font-family="Roboto" font-size="10" lengthAdjust="spacingAndGlyphs" textLength="41" x="336" y="754.8301">Ok (200)</text>
    <polygon fill="#606060" points="317,798.9395,327,802.9395,317,806.9395,321,802.9395" style="stroke: #606060; stroke-width: 1.0;"/>
    <line style="stroke: #606060; stroke-width: 1.0;" x1="45.5" x2="323" y1="802.9395" y2="802.9395"/>
    <text fill="#000000" font-family="Roboto" font-size="10" lengthAdjust="spacingAndGlyphs" textLength="68" x="52.5" y="787.6074">Poll(invoiceID,</text>
    <text fill="#000000" font-family="Roboto" font-size="10" lengthAdjust="spacingAndGlyphs" textLength="100" x="52.5" y="799.3848">invoiceAccessToken)</text>
    <polygon fill="#606060" points="562,836.4941,572,840.4941,562,844.4941,566,840.4941" style="stroke: #606060; stroke-width: 1.0;"/>
    <line style="stroke: #606060; stroke-width: 1.0;" x1="329" x2="568" y1="840.4941" y2="840.4941"/>
    <text fill="#000000" font-family="Roboto" font-size="10" lengthAdjust="spacingAndGlyphs" textLength="121" x="336" y="825.1621">getInvoiceByID(invoiceID,</text>
    <text fill="#000000" font-family="Roboto" font-size="10" lengthAdjust="spacingAndGlyphs" textLength="100" x="336" y="836.9395">invoiceAccessToken)</text>
    <polygon fill="#606060" points="340,862.0488,330,866.0488,340,870.0488,336,866.0488" style="stroke: #606060; stroke-width: 1.0;"/>
    <line style="stroke: #606060; stroke-width: 1.0;" x1="334" x2="573" y1="866.0488" y2="866.0488"/>
    <text fill="#000000" font-family="Roboto" font-size="10" lengthAdjust="spacingAndGlyphs" textLength="97" x="346" y="862.7168">200(invoiceContext)</text>
    <polygon fill="#606060" points="56.5,887.8262,46.5,891.8262,56.5,895.8262,52.5,891.8262" style="stroke: #606060; stroke-width: 1.0;"/>
    <line style="stroke: #606060; stroke-width: 1.0;" x1="50.5" x2="328" y1="891.8262" y2="891.8262"/>
    <text fill="#000000" font-family="Roboto" font-size="10" lengthAdjust="spacingAndGlyphs" textLength="41" x="62.5" y="888.4941">Ok(Paid)</text>
    <polygon fill="#606060" points="317,913.6035,327,917.6035,317,921.6035,321,917.6035" style="stroke: #606060; stroke-width: 1.0;"/>
    <line style="stroke: #606060; stroke-width: 1.0;" x1="45.5" x2="323" y1="917.6035" y2="917.6035"/>
    <text fill="#000000" font-family="Roboto" font-size="10" lengthAdjust="spacingAndGlyphs" textLength="107" x="52.5" y="914.2715">Redirect(SuccessPage)</text>
    <polygon fill="#606060" points="56.5,939.3809,46.5,943.3809,56.5,947.3809,52.5,943.3809" style="stroke: #606060; stroke-width: 1.0;"/>
    <line style="stroke: #606060; stroke-width: 1.0;" x1="50.5" x2="328" y1="943.3809" y2="943.3809"/>
    <text fill="#000000" font-family="Roboto" font-size="10" lengthAdjust="spacingAndGlyphs" textLength="61" x="62.5" y="940.0488">SuccessPage</text>
  </g>
</svg>
